<svg class="logo" alt="we are wild gmbh logo" xmlns="http://www.w3.org/2000/svg" width="9.88cm" height="3.79cm" viewBox="0 0 280 107.49">
            <title>logo-wild</title>
            <g>
              <polygon points="85.15 78.09 68.18 34.92 53.04 34.92 36.21 78.09 20.37 34.92 0 34.92 28.71 105.65 42.86 105.65 60.68 63.63 78.36 105.65 92.51 105.65 121.22 34.92 100.86 34.92 85.15 78.09" fill="#231f20"></polygon>
              <rect x="134.41" y="34.92" width="18.67" height="70.73" fill="#231f20"></rect>
              <rect x="172.69" y="6.63" width="18.81" height="99.02" fill="#231f20"></rect>
              <path d="M143.69,0a11.18,11.18,0,0,0-11.37,11.5,11.43,11.43,0,0,0,22.87,0A11.38,11.38,0,0,0,143.69,0Z" fill="#231f20"></path>
              <path d="M261.33,6.63V43.07a32.25,32.25,0,0,0-23.36-10h-.49l-1.45,0h-.14a22.57,22.57,0,0,0-2.34.21,30.61,30.61,0,0,0-8.29,2.22,29.54,29.54,0,0,0-10.18,7.21,34.45,34.45,0,0,0-6.93,11.67,45.8,45.8,0,0,0-2.54,15.84,45.79,45.79,0,0,0,2.54,15.84,33.82,33.82,0,0,0,7,11.67A30.26,30.26,0,0,0,225.4,105a31.38,31.38,0,0,0,12.45,2.48h.78q.87,0,1.72-.08l.2,0a32.29,32.29,0,0,0,20.77-9.87v8.15H280v-99Zm-4.7,78.15A19.18,19.18,0,0,1,242.8,90.1a20.67,20.67,0,0,1-7.69-1.41,17.83,17.83,0,0,1-6.14-4,18.38,18.38,0,0,1-4.07-6.29,23.12,23.12,0,0,1,0-16.27A18.43,18.43,0,0,1,229,55.86a17.9,17.9,0,0,1,6.14-4,20.71,20.71,0,0,1,7.69-1.41,19.34,19.34,0,0,1,13.83,5.25q5.55,5.25,5.55,14.57T256.63,84.78Z" fill="#231f20"></path>
            </g>
          </svg>


<svg class"logo" width="337px" height="107px" viewBox="0 0 337 107" version="1.1" xmlns="http://www.w3.org/2000/svg" xmlns:xlink="http://www.w3.org/1999/xlink">
    
    <g id="Page-1" stroke="none" stroke-width="1" fill="none" fill-rule="evenodd">
        <g id="Group" fill="#000000" fill-rule="nonzero">
            <path d="M30.026875,91.7142857 L39.3416071,57.007952 L39.565519,57.007952 L48.9250335,91.7142857 L60.6580134,91.7142857 L73.5105525,44.2449777 L62.4940904,44.2449777 L54.4780469,80.6978237 L54.2093527,80.6978237 L44.9394029,44.2449777 L34.2364174,44.2449777 L24.9664676,80.6978237 L24.7425558,80.6978237 L16.7265123,44.2449777 L5.53092076,44.2449777 L18.3834598,91.7142857 L30.026875,91.7142857 Z M104.218717,91.7142857 L113.533449,57.007952 L113.75736,57.007952 L123.116875,91.7142857 L134.849855,91.7142857 L147.702394,44.2449777 L136.685932,44.2449777 L128.669888,80.6978237 L128.401194,80.6978237 L119.131244,44.2449777 L108.428259,44.2449777 L99.1583092,80.6978237 L98.9343973,80.6978237 L90.9183538,44.2449777 L79.7227623,44.2449777 L92.5753013,91.7142857 L104.218717,91.7142857 Z M163.408465,37.438058 C166.90149,37.438058 169.588432,34.6615513 169.588432,31.3476562 C169.588432,27.9441964 166.90149,25.2124721 163.408465,25.2124721 C159.915441,25.2124721 157.183717,27.9441964 157.183717,31.3476562 C157.183717,34.6615513 159.915441,37.438058 163.408465,37.438058 Z M168.961479,91.7142857 L168.961479,44.2449777 L157.81067,44.2449777 L157.81067,91.7142857 L168.961479,91.7142857 Z M188.563616,37.438058 C192.056641,37.438058 194.743583,34.6615513 194.743583,31.3476562 C194.743583,27.9441964 192.056641,25.2124721 188.563616,25.2124721 C185.070592,25.2124721 182.338867,27.9441964 182.338867,31.3476562 C182.338867,34.6615513 185.070592,37.438058 188.563616,37.438058 Z M194.116629,91.7142857 L194.116629,44.2449777 L182.96582,44.2449777 L182.96582,91.7142857 L194.116629,91.7142857 Z M219.27178,91.7142857 L219.27178,27.0933315 L208.120971,27.0933315 L208.120971,91.7142857 L219.27178,91.7142857 Z M250.65168,92.6547154 C257.503382,92.6547154 262.742919,89.2512556 265.42986,83.6534598 L265.698555,83.6534598 L265.698555,91.7142857 L276.849364,91.7142857 L276.849364,27.0933315 L265.698555,27.0933315 L265.698555,52.3953683 L265.42986,52.3953683 C262.742919,46.7080078 257.324252,43.2597656 250.606897,43.2597656 C238.694788,43.2597656 231.037003,52.6192801 231.037003,67.9348493 L231.037003,67.9796317 C231.037003,83.2504185 238.650006,92.6547154 250.65168,92.6547154 Z M254.010357,83.2504185 C246.845179,83.2504185 242.411724,77.4287109 242.411724,67.9796317 L242.411724,67.9348493 C242.411724,58.4857701 246.889961,52.6640625 254.010357,52.6640625 C260.862059,52.6640625 265.698555,58.6648996 265.698555,67.9348493 L265.698555,67.9796317 C265.698555,77.2943638 260.906842,83.2504185 254.010357,83.2504185 Z" id="wwiild"></path>
            <path d="M304.434704,46.6930804 C312.55524,46.6930804 318.944191,40.3041295 318.944191,32.1537388 L318.944191,31.9447545 C318.944191,23.8242188 312.55524,17.4352679 304.434704,17.4352679 L304.22572,17.4352679 C296.075329,17.4352679 289.656523,23.8242188 289.656523,31.9447545 L289.656523,32.1537388 C289.656523,40.3041295 296.075329,46.6930804 304.22572,46.6930804 L304.434704,46.6930804 Z M304.434704,44.8719308 L304.22572,44.8719308 C297.090396,44.8719308 291.477673,39.2890625 291.477673,32.1537388 L291.477673,31.9447545 C291.477673,24.8392857 297.090396,19.2564174 304.22572,19.2564174 L304.434704,19.2564174 C311.510318,19.2564174 317.123041,24.8392857 317.123041,31.9447545 L317.123041,32.1537388 C317.123041,39.2890625 311.510318,44.8719308 304.434704,44.8719308 Z M300.643131,39.9160156 L300.643131,33.6763393 L304.822818,33.6763393 L304.822818,33.6763393 L308.554682,39.9160156 L310.644526,39.9160156 L306.703677,33.3777902 C308.883086,32.8105469 310.196702,31.1386719 310.196702,28.9592634 C310.196702,26.0036272 308.136713,24.2123326 304.703398,24.2123326 L298.821981,24.2123326 L298.821981,39.9160156 L300.643131,39.9160156 Z M304.583979,32.1238839 L300.672985,32.1238839 L300.672985,25.8543527 L304.524269,25.8543527 C306.912662,25.8543527 308.345698,27.0186942 308.345698,28.9891183 C308.345698,30.9296875 306.942517,32.1238839 304.583979,32.1238839 Z" id="®"></path>
        </g>
    </g>
</svg>



<svg class"logo" width="337px" height="107px" viewBox="0 0 337 107" version="1.1" xmlns="http://www.w3.org/2000/svg" xmlns:xlink="http://www.w3.org/1999/xlink">
    <g id="Page-1" stroke="none" stroke-width="1" fill="none" fill-rule="evenodd">
        <g id="Group" fill="#231F20" fill-rule="nonzero">
            <path d="M30.026875,91.7142857 L39.3416071,57.007952 L39.565519,57.007952 L48.9250335,91.7142857 L60.6580134,91.7142857 L73.5105525,44.2449777 L62.4940904,44.2449777 L54.4780469,80.6978237 L54.2093527,80.6978237 L44.9394029,44.2449777 L34.2364174,44.2449777 L24.9664676,80.6978237 L24.7425558,80.6978237 L16.7265123,44.2449777 L5.53092076,44.2449777 L18.3834598,91.7142857 L30.026875,91.7142857 Z M104.218717,91.7142857 L113.533449,57.007952 L113.75736,57.007952 L123.116875,91.7142857 L134.849855,91.7142857 L147.702394,44.2449777 L136.685932,44.2449777 L128.669888,80.6978237 L128.401194,80.6978237 L119.131244,44.2449777 L108.428259,44.2449777 L99.1583092,80.6978237 L98.9343973,80.6978237 L90.9183538,44.2449777 L79.7227623,44.2449777 L92.5753013,91.7142857 L104.218717,91.7142857 Z M163.408465,37.438058 C166.90149,37.438058 169.588432,34.6615513 169.588432,31.3476562 C169.588432,27.9441964 166.90149,25.2124721 163.408465,25.2124721 C159.915441,25.2124721 157.183717,27.9441964 157.183717,31.3476562 C157.183717,34.6615513 159.915441,37.438058 163.408465,37.438058 Z M168.961479,91.7142857 L168.961479,44.2449777 L157.81067,44.2449777 L157.81067,91.7142857 L168.961479,91.7142857 Z M188.563616,37.438058 C192.056641,37.438058 194.743583,34.6615513 194.743583,31.3476562 C194.743583,27.9441964 192.056641,25.2124721 188.563616,25.2124721 C185.070592,25.2124721 182.338867,27.9441964 182.338867,31.3476562 C182.338867,34.6615513 185.070592,37.438058 188.563616,37.438058 Z M194.116629,91.7142857 L194.116629,44.2449777 L182.96582,44.2449777 L182.96582,91.7142857 L194.116629,91.7142857 Z M219.27178,91.7142857 L219.27178,27.0933315 L208.120971,27.0933315 L208.120971,91.7142857 L219.27178,91.7142857 Z M250.65168,92.6547154 C257.503382,92.6547154 262.742919,89.2512556 265.42986,83.6534598 L265.698555,83.6534598 L265.698555,91.7142857 L276.849364,91.7142857 L276.849364,27.0933315 L265.698555,27.0933315 L265.698555,52.3953683 L265.42986,52.3953683 C262.742919,46.7080078 257.324252,43.2597656 250.606897,43.2597656 C238.694788,43.2597656 231.037003,52.6192801 231.037003,67.9348493 L231.037003,67.9796317 C231.037003,83.2504185 238.650006,92.6547154 250.65168,92.6547154 Z M254.010357,83.2504185 C246.845179,83.2504185 242.411724,77.4287109 242.411724,67.9796317 L242.411724,67.9348493 C242.411724,58.4857701 246.889961,52.6640625 254.010357,52.6640625 C260.862059,52.6640625 265.698555,58.6648996 265.698555,67.9348493 L265.698555,67.9796317 C265.698555,77.2943638 260.906842,83.2504185 254.010357,83.2504185 Z" id="wwiild"></path>
            <path d="M304.434704,46.6930804 C312.55524,46.6930804 318.944191,40.3041295 318.944191,32.1537388 L318.944191,31.9447545 C318.944191,23.8242188 312.55524,17.4352679 304.434704,17.4352679 L304.22572,17.4352679 C296.075329,17.4352679 289.656523,23.8242188 289.656523,31.9447545 L289.656523,32.1537388 C289.656523,40.3041295 296.075329,46.6930804 304.22572,46.6930804 L304.434704,46.6930804 Z M304.434704,44.8719308 L304.22572,44.8719308 C297.090396,44.8719308 291.477673,39.2890625 291.477673,32.1537388 L291.477673,31.9447545 C291.477673,24.8392857 297.090396,19.2564174 304.22572,19.2564174 L304.434704,19.2564174 C311.510318,19.2564174 317.123041,24.8392857 317.123041,31.9447545 L317.123041,32.1537388 C317.123041,39.2890625 311.510318,44.8719308 304.434704,44.8719308 Z M300.643131,39.9160156 L300.643131,33.6763393 L304.822818,33.6763393 L304.822818,33.6763393 L308.554682,39.9160156 L310.644526,39.9160156 L306.703677,33.3777902 C308.883086,32.8105469 310.196702,31.1386719 310.196702,28.9592634 C310.196702,26.0036272 308.136713,24.2123326 304.703398,24.2123326 L298.821981,24.2123326 L298.821981,39.9160156 L300.643131,39.9160156 Z M304.583979,32.1238839 L300.672985,32.1238839 L300.672985,25.8543527 L304.524269,25.8543527 C306.912662,25.8543527 308.345698,27.0186942 308.345698,28.9891183 C308.345698,30.9296875 306.942517,32.1238839 304.583979,32.1238839 Z" id="®"></path>
        </g>
    </g>
</svg>