<svg xmlns="http://www.w3.org/2000/svg" width="11" height="11" viewBox="0 0 11 11">
    <path fill="none" fill-rule="nonzero" stroke="#1D1D1D" d="M4.805 4.153C16.98 9.264-.73-.713 3.978 4.667 9.36 10.817 7-1.527 4.72 1.48 2.527 4.373 2.59 8.506 7.275 5.7c3.694-2.212-3.14-3.065-4.07-2.417-.65.452-1.456 1.845-.744 2.202 1.758.881 4.106 1.14 5.932.398 1.041-.424 1.851-3.67.854-3.16l-4.21.448c-3.584 1.837 6.035 7.068 3.741-.99C7.976-.638-1.16 4.768 8.381 4.12c.476-.032.494-1.611.083-1.377L3.392 2.43C-.591 4.7 6.72 8.19 9.707 6.38c.411-.25.37-1.71 0-1.405L3.693 3.332c-1.713 1.411 1.966 7.74.108 6.51C1.313 8.195 1.934 4.313 1 1.55"/>
</svg>
