<svg xmlns="http://www.w3.org/2000/svg" width="11" height="11" viewBox="0 0 11 11">
    <path fill="none" fill-rule="nonzero" stroke="#1D1D1D" d="M6.195 6.847c-12.175-5.111 5.535 4.866.827-.514C1.64.183 4 12.527 6.28 9.52 8.473 6.627 8.41 2.494 3.725 5.3c-3.694 2.212 3.14 3.065 4.07 2.417.65-.452 1.456-1.845.744-2.202-1.758-.881-4.106-1.14-5.932-.398-1.041.424-1.851 3.67-.854 3.16l4.21-.448C9.546 5.992-.073.761 2.221 8.82c.802 2.818 9.938-2.588.397-1.939-.476.032-.494 1.611-.083 1.377l5.072.313C11.591 6.3 4.28 2.81 1.293 4.62c-.411.25-.37 1.71 0 1.405l6.014 1.643c1.713-1.411-1.966-7.74-.108-6.51C9.687 2.805 9.066 6.687 10 9.45"/>
</svg>
