<svg xmlns="http://www.w3.org/2000/svg" width="16" height="16" viewBox="0 0 16 16">
    <path fill="#1D1D1D" fill-rule="nonzero" d="M15.179 7.979c0 3.86-3.208 7.021-7.18 7.021C4.028 15 .82 11.84.82 7.979.82 4.119 4.028 1 8 1c3.971 0 7.179 3.118 7.179 6.979zm-5.39 5.706c2.466-.849 4.255-3.055 4.255-5.706.022-3.246-2.706-5.876-6.045-5.876-3.338 0-6.066 2.63-6.066 5.876 0 2.673 1.833 4.879 4.343 5.706V12.56c0-.68.283-1.019.567-1.21-1.571-.148-3.23-.7-3.23-3.33 0-.742.262-1.336.72-1.803-.065-.17-.305-.87.066-1.782 0 0 .589-.19 1.898.7a6.75 6.75 0 0 1 1.724-.233c.59 0 1.179.085 1.746.233 1.331-.87 1.899-.7 1.899-.7.37.934.13 1.612.065 1.782.437.467.72 1.06.72 1.803 0 2.63-1.68 3.182-3.23 3.33.284.191.59.552.59 1.21v1.124h-.022z"/>
</svg>
