<svg xmlns="http://www.w3.org/2000/svg" width="16" height="16" viewBox="0 0 16 16">
    <path fill="#1D1D1D" fill-rule="nonzero" d="M11.008 1c2.3 0 4.171 1.824 4.171 4.067v5.866c0 2.243-1.871 4.067-4.171 4.067H4.99C2.691 15 .82 13.176.82 10.933V5.067C.82 2.824 2.691 1 4.991 1h6.017zm3.05 9.933V5.067c-.003-1.641-1.367-2.971-3.05-2.973H4.99c-1.683.002-3.047 1.332-3.05 2.973v5.866c.003 1.641 1.367 2.971 3.05 2.973h6.017c1.683-.002 3.047-1.332 3.05-2.973zM7.998 4.227c2.134 0 3.87 1.692 3.87 3.773 0 2.08-1.736 3.773-3.87 3.773-2.133 0-3.87-1.692-3.87-3.773 0-2.08 1.737-3.773 3.87-3.773zm0 6.453c1.518-.002 2.747-1.2 2.749-2.68 0-1.48-1.23-2.68-2.749-2.68-1.517 0-2.748 1.2-2.748 2.68 0 1.48 1.23 2.68 2.748 2.68zm3.927-5.961a.554.554 0 0 1-.561-.547c0-.302.251-.547.56-.547.31 0 .562.245.562.547a.554.554 0 0 1-.561.547z"/>
</svg>
