<svg xmlns="http://www.w3.org/2000/svg" width="16" height="16" viewBox="0 0 16 16">
    <path fill="#1D1D1D" fill-rule="nonzero" d="M15.885 3.004s-.6.99-1.573 1.66c.2 4.546-3.06 9.586-8.98 9.586C2.388 14.25.5 12.793.5 12.793s2.316.496 4.661-1.31c-2.373-.146-2.945-2.244-2.945-2.244.474.101.965.081 1.43-.058C.986 8.51 1.1 5.976 1.1 5.976s.657.408 1.43.408C.127 4.49 1.557 2.072 1.557 2.072s2.173 3.117 6.52 3.38c-.63-3.526 3.346-5.158 5.376-2.943 1.058-.175 2.03-.787 2.03-.787s-.343 1.195-1.4 1.777c.857-.058 1.8-.495 1.8-.495z"/>
</svg>
