<svg height="61" viewBox="0 0 172 61" width="172" xmlns="http://www.w3.org/2000/svg"><path d="m658.104985 658.741455c33.428175-7.331627 66.621128-16.158012 100.284525-21.994881 8.751203-1.517365 26.901036-9.883555 26.568129 0l1.047739.897099c-.013857.411393-.718547.199047-1.085839.234025l-42.719188 2.652293c-28.642135 2.727688-57.284547 5.61671-85.809849 9.587967-6.944842.966852 14.026199.217827 20.989711-.56379 10.486846-1.177091 20.784291-4.013542 31.26073-5.301039 13.919632-1.710647 27.888418-3.065817 41.880998-3.68768 24.427422-1.085611 48.882762-1.263631 73.32905-1.432521.455706-.003149 1.38784.531069 1.092189.918374-.550332.720938-1.604403.629024-2.432025.836819-16.644731 4.179075-33.182766 8.97183-49.977164 12.321814-27.176877 5.42098-54.418344 10.709062-81.869714 13.977724-10.257015 1.221313 20.035523-5.519397 30.143142-7.81859 15.96183-3.630857 31.913093-7.456758 48.046784-9.967372 9.378664-1.459443 18.894771-1.476427 28.355636-1.921848 4.151287-.195445 8.323361-.372562 12.464922 0 1.175451.105739 3.469116.114624 3.301967 1.418338-.188083 1.466983-2.373344 1.528784-3.695663 1.652364-15.434537 1.442468-30.90202 2.623964-46.386276 3.028152-23.20056.605609-46.432625 1.043926-69.620689 0-10.346677-.465807-20.934268-8.032778-30.80036-4.520953-9.301904 3.311002 19.419252 2.669967 28.917605 5.191118 19.181844 5.091445 37.817885 12.556436 57.006542 17.615762 10.151273 2.676508 20.818875 2.539278 30.892435 5.559886 1.043723.312965-.251463 3.11096-1.317612 3.308274l-1.93673.719806c-8.406449 1.555792-16.760246 3.815266-25.269567 4.315295-9.65182.567164-19.505593 1.017858-28.977929-1.127579-10.24588-2.320642-19.383218-8.880826-29.431949-12.101972-7.671682-2.459176-30.785012-1.133566-23.542385-4.879083 8.463995-4.377147 18.679116.942022 27.882566 2.634563 15.547478 2.859227 30.741205 7.786767 46.233877 10.995667 6.376041 1.32063 25.777716 1.964679 19.316503 2.581376-23.675153 2.259698-47.540269.67057-71.252622 2.375717-19.723677 1.418322-17.609929 10.693496-27.89209-1.329692-.72776-.850988-2.330668-2.885378-1.317612-3.208991 4.109881-1.312868 8.591185.252875 12.817344-.464506 37.890912-6.431896 75.521032-14.708267 113.435241-20.966585 6.961338-1.149075 28.116302-1.444649 21.081785-1.2375-25.951842.764215-68.248499 3.938903-97.982674 2.180695-5.287221-.312638-20.409612.554271-15.754189-2.26225 15.966576-9.659744 86.703706-10.095496 91.400966-10.350323" fill="none" stroke="#000" stroke-width="2" transform="translate(-654 -631)"/></svg>