<svg height="67" viewBox="0 0 178 67" width="178" xmlns="http://www.w3.org/2000/svg"><path d="m676.950591 321.994059c41.315386 0 83.065357 3.12533 124.359375 1.800781 2.653463-.085112 10.498173-1.59036 7.863281-1.265625-26.552542 3.272453-52.998873 7.462901-79.621094 10.109375-7.321984.727868-29.403615-.648988-22.074219 0 30.850575 2.731695 123.652481 5.088803 92.703125 6.253907l31.867188.476562c-127.335138 4.793595-40.870387-3.256159-144.195313 7.261719-1.363627.138809-3.369458-.482316-4.050781.707031-.527759.92128 1.868051 1.264617 2.929688 1.25 12.371469-.170333 24.702665-1.636658 37.074218-1.800781 19.441816-.257919 38.904667-.348015 58.328125.535156 8.710273.39605 34.278133.717166 25.949219 3.296875-14.774954 4.576238-30.904842 1.563515-46.304687 3.007813-21.388367 2.00594-42.638947 5.334233-64.027344 7.339843-.443368.041575-.443107-1.291667 0-1.335937l4.714844-1.320313c28.181724-2.815584 56.387981-5.412779 84.625-7.605468 9.918116-.770172 39.756285-.880011 29.816406-1.28125-114.781227-4.633326-70.676997 1.729179-148.082031-4.621094-.57755-.047382-2.083699-.737102-1.515625-.851563 6.281777-1.265711 56.096981-10.648584 71.253906-11.390625 14.237055-.697006 57.0153-.104286 42.761719-.226562-25.965642-.222749-66.52962 7.224897-93.683594-8.089844-14.65061-8.26289 113.044016 5.077002 109.980469 5.527344-27.738361 4.077545-56.524349 5.010919-84.109375 0-19.15598-3.479753 38.777925-3.647387 58.21875-4.703125 20.086785-1.090817 40.214339-2.245802 60.324218-1.734375 8.985138.228507-17.853706 2.400875-26.839843 2.585937-32.901878.677588-65.817709 0-98.726563 0-4.830729 0 9.775332-1.042696 14.492188 0 18.029872 3.985639 35.396832 10.584197 53.328125 14.992188 10.020447 2.463294 20.168236 4.674809 30.445312 5.601562 11.464219 1.033806 45.788176-2.146077 34.53125.257813-15.716772 3.35628-32.076233 2.182743-48.140625 2.648437-14.4002.417451-57.534375 1.613355-43.21875 0 28.758574-3.241058 115.158463.272814 86.683594-4.898437-37.275703-6.769548-75.773281.430596-113.65625 0-3.72776-.042372-7.529748-.324405-11.09375-1.417969-5.757887-1.766726-10.847252-5.372072-16.621094-7.085937-4.915119-1.458969-20.324867-2.48071-15.199219-2.359375 14.609089.345827 119.725685 7.852807 131.507813 5.078125 12.874683-3.031979-25.622158-6.812391-38.710938-8.71875-33.747436-4.915259-67.807249-7.408002-101.636718-11.722657-1.152129-.146944-2.442723-.66057-3.078125-1.632812-.366482-.560761.144238-1.753865.808593-1.839844l17.550782-3.675781c8.289147-1.072758 16.651925-1.632209 25.007812-1.832031 17.195605-.411215 34.406344-.427036 51.601563 0 6.62723.164584 13.274367.654884 19.808593 1.773437 7.485621 1.281417 29.353079 3.051614 22.132813 5.40625-28.697683 9.358741-59.49368 10.311427-89.054688 16.417969-4.477635.924964-15.570167.928577-12.90625 4.644531 3.386818 4.724344 11.711779.234134 17.367188 1.578125 20.979997 4.985835 41.280079 12.634189 62.320312 17.359375 7.794657 1.750513 31.394052-.720709 23.882813 2-11.036296 3.997549-23.522884.489583-35.152344 2.082031-25.3725 3.474314-50.387101 9.233258-75.703125 13.097657-.568699.086809.015171-1.478002.570313-1.628907l58.746093-17.140625c6.990036-1.900104 14.041049-3.782514 21.238282-4.601562 11.260171-1.281412 22.63802-1.119792 33.957031-1.679688" fill="none" stroke="#000" stroke-width="2" transform="translate(-665 -308)"/></svg>