<svg height="49" viewBox="0 0 305 49" width="305" xmlns="http://www.w3.org/2000/svg"><path d="m373 810.105336c73.730469.080729 147.463095-.327574 221.191406.242187 19.287323.14905 77.117184 1.58859 57.832032 1.914063-82.454215 1.391568-164.928775 1.466426-247.394532 1.285156-29.157378-.064091 58.30014-1.456514 87.457032-1.636719 27.308779-.168782 54.758413-2.190814 81.925781.589844 20.377937 2.085741 79.577273 8.38463 59.855469 13.921875-36.87833 10.354243-174.172655 7.018147-224.847657 7.679688-9.460678.123505-37.724697 2.751405-28.34375 1.519531 69.703235-9.153193 139.463064-17.975149 209.382813-25.292969 8.257081-.864188 33.153297-.074496 24.894531.773438-35.514192 3.646267-140.51271 7.573828-172.851562 8.289062-19.961265.441481-79.864584 0-59.898438 0 41.760417 0 83.522775-.402659 125.28125 0 21.308468.205469 42.926701-1.932832 63.902344 1.824219 6.629574 1.187456-12.671212 4.680823-19.238281 6.175781-29.109051 6.62652-58.277802 13.105583-87.699219 18.167969-15.25305 2.624511-30.736185 3.78902-46.175781 4.867187-7.822098.546228-15.684978.205224-23.523438 0-1.626435-.042582-3.247098-.342444-4.824219-.742187-.701624-.177837-1.55862-.358346-1.941406-.972656-4.5176-7.250019 119.80107-13.706429 139-14.179688 12.217549-.301166 47.581863-4.968491 36.660156.515625-13.139848 6.597911-29.298482 2.757796-43.996093 3.167969-33.566312.936751-67.168628 1.827868-100.734376.871094-9.886557-.281812-38.918338-2.206135-29.316406-4.578125 14.600545-3.606811 30.095832-.137356 45.113282.675781 32.781849 1.77501 65.446748 5.421042 98.234375 7.085937 30.976778 1.572944 67.554507 2.286826 98.457031-4.632812 4.05383-.907726 6.337356-6.061314 10.417969-6.839844 8.917992-1.701441 18.282619 1.170037 27.234375-.34375.271924-.045984.772714-5.918165-1.515626-6.039062-15.199417-.803017-30.467279-1.695812-45.656249-.714844-12.057991.778756-43.44999-3.342488-35.753907 5.972656 8.742912 10.582199 27.475171-.25556 41.175782.589844 9.604212.592633 34.403179 6.125782 46.453124 3.714844 1.448045-.289723 2.055061-2.494531 1.96875-3.96875-.106242-1.814676-5.058936-3.30784-18.929687-3.710938-15.959408-.463796-31.944843-.63295-47.898437 0-2.076859.082398-7.838629 1.498238-5.859375 2.132813 2.978245.954865 62.392143 22.537367 68.593749 3.398437.869436-2.683185 2.615693-7.17479.105469-8.460937-6.105248-3.128106-13.625077-1.884882-20.484375-1.980469-40.540334-.564948-81.097926-.872296-121.632812 0-46.631272 1.003487-90.001011 8.689084-136.050782-1.003906-.77683-.163515-1.489187-1.288551-1.230468-2.039063 1.416984-4.110502 9.919386-5.506778 12.152344-5.597656 21.983912-.894714 44.068307-2.275925 66.003906-.566406 19.572436 1.525349 70.534857-4.878611 58 10.230468-4.55431 5.489607-129.905021 6.877947-137.542969 6.601563-5.542482-.200558-11.51455-.970145-16.144531-4.023438-1.53892-1.014857 1.548339-3.482137 2.953125-4.675781 2.148521-1.825594 4.701527-3.266117 7.390625-4.113281 9.029312-2.844562 18.255443-5.101015 27.550781-6.894531 11.22478-2.165798 22.552034-3.898021 33.933594-4.96875 4.780431-.449723 9.700534-.570334 14.398437.421875 1.992824.420889 20.814676 5.49766 16.410156 13.925781-15.921452 30.465967-39.83664 29.005331 35.152344-4.761719 4.867933-2.191998 9.973294-3.880896 15.140625-5.222656 1.604348-.416588 5.835068-1.41553 4.972657 0-8.390533 13.771908-17.020284 16.374078-22.300782 29.011719-.608714 1.456814-2.311409 5.25199-.847656 4.660156 9.829562-3.974351 18.092019-11.172863 27.753906-15.539063 14.016859-6.334207 28.562289-11.460108 43.101563-16.480468 4.071931-1.406024 8.328242-2.452855 12.625-2.761719.635059-.04565.086037 1.409154-.34375 1.878906l-18.339844 17.4375c-2.944049 3.217811-5.316232 6.951878-7.453125 10.753906-.977974 1.740043-3.794766 5.801513-1.800781 5.710938 267.563857-12.153829-268.758091-2.409791 42.945312-8.089844 21.111079-.384699 42.237221-.583149 63.34375 0 1.161291.032085 2.991161.670595 2.964844 1.832031-.034316 1.514481-2.054687 2.226563-3.082031 3.339844" fill="none" stroke="#000" stroke-width="2" transform="translate(-372 -803)"/></svg>