<svg height="78" viewBox="0 0 346 78" width="346" xmlns="http://www.w3.org/2000/svg"><path d="m731.000783 813.087991c6.554687-2.881511 12.871395-6.380309 19.664062-8.644532 4.236106-1.412035 9.776421-5.180807 13.195313-2.308593 2.979744 2.503284-.771635 7.872822-2.324219 11.441406-7.40525 17.02083-17.883128 32.672301-24.425781 50.042969-2.215011 5.880827 6.810071-10.685685 11.269531-15.113282 11.462572-11.380669 23.871076-21.784321 36.292969-32.109375 6.093455-5.064868 11.305932-14.707801 19.199219-14.015625 147.603092 12.943585-279.327068 48.45819 34.226562-4.039062 8.082056-1.353152-11.32073 11.874574-16.488281 18.234375-.812599 1.00008-2.491591 4.107567-1.289063 3.644531l59.988282-27.492187c2.116479-.814956-1.959209 4.205112-3.59375 5.777343-14.133562 13.594784-28.763352 26.673022-43.542969 39.5625-1.123531.979845 1.133504-3.055892 2.460937-3.734375 8.060567-4.119947 16.3689-7.985012 25.105469-10.355468 7.880225-2.138109 16.142429-2.834018 24.304688-3.050782 24.152171-.641406 92.013681-13.738969 72.480468.480469-29.115812 21.195207-70.195747 16.160174-105.449218 23.519531-8.07016 1.684691-16.251988 2.930385-24.46875 3.601563-12.008746.980922-24.135857 2.583084-36.121094 1.347656-2.76319-.284827-8.889576-8.223876-2.566406-10.507812 6.466736-2.335793 13.490101-2.91784 20.351562-3.359375 18.477861-1.189052 37.011694-1.397354 55.527344-1.523438 17.631742-.120065 35.282892-.142471 52.890625.785156 40.112314 2.113234 42.113523 6.118484 73.554687 4.699219 8.208204-.370521 32.67114-.813905 24.55859-2.117187-13.46126-2.162556-27.294341-1.408313-40.898433-.507813-41.097502 2.720379-81.920668 8.975513-123.039063 11.359375-25.513252 1.479145-51.128838 1.14974-76.667969.21875-2.613108-.095257-5.454923-1.264658-7.128906-3.273437-.738185-.885823.992944-2.528606 2.128906-2.726563 11.608389-2.022922 23.378556-3.206719 35.148438-3.769531 62.728441-2.999551 125.538282-4.058379 188.273437-6.914063 7.25566-.330275 14.53257-1.092851 21.62891-2.640625 7.24465-1.580122 24.56963-.092457 21.21093-6.703125-3.88266-7.641965-17.14198-.861444-25.63671-2.007812-5.44301-.734536-10.829364-1.990964-16.074223-3.621094-36.669068-11.396944-71.889369-22.448804-110.773438-23.003906-16.294519-.232618-38.33705-11.998671-48.886719.421875l-2.882812.9375c-2.441633 2.874631 1.72728 5.769082 4.042969 5.621094 7.922277-.50629 15.738677-2.428658 23.675781-2.574219 25.616641-.469793 51.290797-.90685 76.859375.730469 16.374885 1.048587 32.373121 5.483136 48.679687 7.308593 8.675757.971218 34.89749.983717 26.16797 1.070313-27.098188.268812-54.239838-2.04025-81.296876-.523438-104.967823 5.884475-100.110686 15.11381-182.089844 12.957032-.885005-.023284-1.701156-2.225816-.863281-2.511719 44.574321-15.209817 101.50671-5.275351 147.421875 1.441406 16.679893 2.440039 66.479756 6.701118 49.773438 8.953125-53.157435 7.165608-139.224947 3.224387-197.21875-8.457031-3.356451-.676074-8.599225-1.082249-9.261719-4.441406-.530713-2.690962 5.370365-1.169712 8.097656-1.460938 9.78047-1.044378 19.564789-2.32463 29.398438-2.542969 7.287661-.16181 87.104367-1.246597 114.546875 1.351563 18.178602 1.721086 36.14281 5.729947 54.382812 6.582031 6.546083.305801 85.321806 7.523686 116.839846-3.058594.76596-.257174 1.57972-.705899 1.96875-1.414062.26078-.474705.21664-1.497761-.31641-1.59375l-40.83203-8.78125c-17.65735-3.179688-35.335715-6.524993-53.203125-8.152344-55.834709-5.085387-117.177549-7.134721-172.011718 7.558594-8.965991 2.402519-35.491256 7.185748-26.375 8.933594 34.761866 6.664837 70.635979 4.760502 105.996093 6.332031 28.048925 1.246593 56.135417 1.414062 84.203125 2.121094" fill="none" stroke="#000" stroke-width="2" transform="translate(-719 -788)"/></svg>