<svg height="62" viewBox="0 0 187 62" width="187" xmlns="http://www.w3.org/2000/svg"><path d="m453.418479 648.23032c7.299633 0 5.672305.631063 13.632813-2.804688 8.117999-3.503723 27.067809-19.371513 24.121094-11.035156-11.710461 33.129285-83.299498 77.073425 6.234375 10.523438 4.925026-3.660743 18.125697-15.457955 15.519531-9.902344-4.876941 10.396261-15.813274 16.697711-22.933594 25.707031-4.827682 6.108453-20.492073 20.832659-12.816406 19.527344 3.332306-.566688 61.442233-48.808349 64.554687-45.496094 9.336953 9.93633-23.784149 16.256743-28.988281 28.859375-3.698305 8.956033 15.725346-11.34444 23.902344-16.542969 3.999613-2.542754 8.157938-4.91437 12.570312-6.644531 3.675166-1.441089 14.223095-5.662329 11.507813-2.796875-7.07362 7.464834-17.497322 10.925982-25.421875 17.480469-30.093806 24.890925-12.947998 17.492986 10.832031 6.042969 12.967622-6.243874 23.588958-19.874258 37.964844-20.566407 9.518208-.458268-14.151229 12.796473-20.683594 19.734375-62.401918 66.27591 44.510561-13.7736 52.972656-17.820312 7.338313-3.509301-12.117107 10.885354-17.679687 16.820312-6.377675 6.804618-12.266468 14.059119-18.089844 21.34375-1.626456 2.034582 3.272633-4.188161 5.480469-5.570312 5.213608-3.263826 10.804917-5.951349 16.527344-8.207031 9.710458-3.827696 19.338711-8.530818 29.671875-10.003907 2.77825-.396065-4.31611 3.907751-5.3125 6.53125-1.210011 3.185966.396902 7.077545-1.03125 10.171875-.586722 1.27123-.764147-2.970914-1.945313-3.722656-3.648053-2.321768-7.821718-3.743279-11.925781-5.105469-7.526375-2.498097-15.498934-3.601081-22.898438-6.453125-4.629424-1.784351-17.181615-9.928997-12.9375-7.359375 6.916685 4.187745 14.211967 7.755939 20.957032 12.214844 7.523969 4.97381 30.717001 14.76203 21.789062 16.042969-15.790106 2.265491-36.933141-19.807966-52.121094-24.519531-1.656537-.513887.579576 3.593357 1.699219 4.917968 6.273452 7.421907 14.474407 13.166367 20.214844 21.007813.935555 1.27797-3.247489.618118-4.75.117187-5.565938-1.85566-10.900147-4.389888-16.117188-7.074218-13.434714-6.91258-26.254345-14.996417-39.796875-21.695313-10.849467-5.366755 86.637851 47.939831 56.363282 37.554688-29.278118-10.043329-54.519997-29.589064-83.1875-41.261719-64.904459-26.427393 69.937889 37.951813 28.234375 26.335937-100.64068-28.03192-70.18259-44.718053-19.605469 1.398438 2.453807 2.237394-6.752103-.106611-9.890625-1.191406-6.594677-2.279377-12.767731-5.647685-18.996094-8.792969-.969404-.489543-3.371706-1.40209-2.515625-2.070313 1.35795-1.05996 3.600015-.713487 5.167969 0 15.703476 7.145763 30.824965 15.507568 46.183594 23.367188 8.315796 4.255523-16.926929-7.950181-25.054688-12.554688-3.156091-1.787976-11.851966-4.79247-8.683594-6.558593l-2.054687-4.460938c24.69986-13.768269 4.42911 16.550856 18.84375 21.046875 5.903844 1.841447-.183594 13.722656 36.25 0 22.831495-8.599447-25.05134-19.033838-37.171875-29.054687-3.234455-2.674139-6.992119-5.202732-8.828125-8.976563-.650528-1.337131 3.041413-.442784 4.460937 0 22.104642 6.89497 43.742654 15.246178 65.90625 21.949219 11.714035 3.54273 23.616694 6.549174 35.652344 8.765625 1.880208.346254-3.052807-2.390248-4.832031-3.089844-4.85626-1.909496-10.157777-2.589868-14.9375-4.683594-4.118866-1.804241-8.022298-4.172115-11.574219-6.929687-1.834349-1.424117-3.234827-3.403512-4.355469-5.4375-.791767-1.437075-2.894011-4.924242-1.261718-4.757813 142.987358 14.579104.201364 12.863132 7.109375-2.445312 6.949972-15.401431 33.752604-1.669271 50.628906-2.503906" fill="none" stroke="#000" stroke-width="2" transform="translate(-451 -631)"/></svg>