<svg class="logo" width="130px" height="23px" viewBox="0 0 130 23" xmlns:xlink="http://www.w3.org/1999/xlink">
                            <g>
                                <path d="M4.11500333,22 L4.11500333,12.7 C4.11500333,11.68 4.41500333,10.78 5.01500333,10.06 C5.61500333,9.28 6.39500333,8.92 7.38500333,8.92 C9.42500333,8.92 10.4450033,10.09 10.4450033,12.46 L10.4450033,22 L13.8650033,22 L13.8650033,12.52 C13.8650033,11.38 14.1350033,10.51 14.7350033,9.88 C15.3050033,9.22 15.9950033,8.92 16.8350033,8.92 C18.0350033,8.92 18.8750033,9.19 19.4150033,9.76 C19.9250033,10.3 20.1950033,11.2 20.1950033,12.43 L20.1950033,22 L23.6150033,22 L23.6150033,11.83 C23.6150033,10.12 23.0750033,8.74 22.0550033,7.66 C20.9750033,6.58 19.6550033,6.07 18.0650033,6.07 C17.0150033,6.07 16.1450033,6.25 15.4550033,6.61 C14.6750033,6.97 13.9250033,7.63 13.2050033,8.59 C12.2150033,6.91 10.5950033,6.07 8.31500333,6.07 C6.81500333,6.07 5.40500333,6.73 4.11500333,8.08 L4.11500333,6.49 L0.695003333,6.49 L0.695003333,22 L4.11500333,22 Z M31.7525025,22.42 C33.1025025,22.42 34.2725025,22.18 35.2625025,21.73 C36.1325025,21.31 36.8825025,20.74 37.4825025,19.96 L37.4825025,22 L40.6625025,22 L40.6625025,12.1 C40.6625025,10.21 40.1825025,8.77 39.2225025,7.78 C38.1425025,6.64 36.4325025,6.07 34.1525025,6.07 C32.1725025,6.07 30.6125025,6.4 29.4725025,7.12 C28.1225025,7.9 27.2825025,9.16 26.9525025,10.87 L30.3425025,11.14 C30.5225025,10.33 30.9725025,9.73 31.6325025,9.34 C32.2025025,8.98 32.9525025,8.83 33.9125025,8.83 C36.1325025,8.83 37.2425025,9.82 37.2425025,11.86 L37.2425025,12.46 L33.8525025,12.55 C31.5725025,12.61 29.8025025,13.09 28.5425025,13.99 C27.1625025,14.92 26.5025025,16.27 26.5025025,18.01 C26.5025025,19.3 26.9825025,20.35 27.9425025,21.19 C28.8725025,22 30.1325025,22.42 31.7525025,22.42 Z M32.5325025,19.81 C31.7825025,19.81 31.1825025,19.6 30.7025025,19.24 C30.2225025,18.88 30.0125025,18.43 30.0125025,17.89 C30.0125025,16.03 31.3625025,15.07 34.0925025,15.01 L37.2425025,14.92 L37.2425025,15.7 C37.2425025,16.9 36.7625025,17.89 35.8625025,18.67 C34.9625025,19.42 33.8525025,19.81 32.5325025,19.81 Z M47.5700017,22 L47.5700017,12.67 C47.6900017,11.44 48.1100017,10.48 48.8300017,9.82 C49.4600017,9.22 50.2100017,8.92 51.0500017,8.92 C53.3900017,8.92 54.5600017,10.18 54.5600017,12.73 L54.5600017,22 L57.9800017,22 L57.9800017,12.43 C57.9800017,8.17 56.0300017,6.07 52.1600017,6.07 C51.2300017,6.07 50.3900017,6.25 49.6100017,6.64 C48.8600017,7 48.1700017,7.57 47.5700017,8.29 L47.5700017,6.49 L44.1500017,6.49 L44.1500017,22 L47.5700017,22 Z M68.0675008,22.42 C70.1075008,22.42 71.6675008,21.73 72.7475008,20.35 L72.7475008,22 L75.9275008,22 L75.9275008,0.16 L72.5075008,0.16 L72.5075008,8.62 C71.2175008,6.91 69.6875008,6.07 67.8875008,6.07 C65.6675008,6.07 63.8975008,6.88 62.6375008,8.5 C61.4375008,10 60.8675008,11.89 60.8675008,14.17 C60.8675008,16.54 61.4675008,18.49 62.6675008,19.99 C63.9575008,21.61 65.7575008,22.42 68.0675008,22.42 Z M68.5775008,19.66 C67.0475008,19.66 65.9375008,19.12 65.2475008,18.04 C64.6475008,17.14 64.3775008,15.85 64.3775008,14.17 C64.3775008,12.49 64.6775008,11.23 65.3075008,10.36 C66.0275008,9.34 67.1375008,8.83 68.6975008,8.83 C69.7775008,8.83 70.7075008,9.28 71.4275008,10.18 C72.2075008,11.14 72.6275008,12.46 72.6275008,14.11 L72.6275008,14.35 C72.6275008,15.85 72.2975008,17.11 71.6675008,18.07 C70.9475008,19.12 69.8975008,19.66 68.5775008,19.66 Z M82.835,22 L82.835,13.33 C82.835,12.01 83.135,10.96 83.765,10.12 C84.365,9.28 85.205,8.86 86.285,8.86 C87.455,8.86 88.325,9.22 88.925,9.97 C89.435,10.66 89.705,11.68 89.705,13 L89.705,22 L93.125,22 L93.125,12.4 C93.125,10.33 92.675,8.77 91.805,7.72 C90.875,6.61 89.465,6.07 87.575,6.07 C86.585,6.07 85.715,6.25 84.965,6.64 C84.125,7.06 83.405,7.69 82.835,8.56 L82.835,0.16 L79.415,0.16 L79.415,22 L82.835,22 Z M101.262499,22.42 C102.612499,22.42 103.782499,22.18 104.772499,21.73 C105.642499,21.31 106.392499,20.74 106.992499,19.96 L106.992499,22 L110.172499,22 L110.172499,12.1 C110.172499,10.21 109.692499,8.77 108.732499,7.78 C107.652499,6.64 105.942499,6.07 103.662499,6.07 C101.682499,6.07 100.122499,6.4 98.9824992,7.12 C97.6324992,7.9 96.7924992,9.16 96.4624992,10.87 L99.8524992,11.14 C100.032499,10.33 100.482499,9.73 101.142499,9.34 C101.712499,8.98 102.462499,8.83 103.422499,8.83 C105.642499,8.83 106.752499,9.82 106.752499,11.86 L106.752499,12.46 L103.362499,12.55 C101.082499,12.61 99.3124992,13.09 98.0524992,13.99 C96.6724992,14.92 96.0124992,16.27 96.0124992,18.01 C96.0124992,19.3 96.4924992,20.35 97.4524992,21.19 C98.3824992,22 99.6424992,22.42 101.262499,22.42 Z M102.042499,19.81 C101.292499,19.81 100.692499,19.6 100.212499,19.24 C99.7324992,18.88 99.5224992,18.43 99.5224992,17.89 C99.5224992,16.03 100.872499,15.07 103.602499,15.01 L106.752499,14.92 L106.752499,15.7 C106.752499,16.9 106.272499,17.89 105.372499,18.67 C104.472499,19.42 103.362499,19.81 102.042499,19.81 Z M117.049998,22 L117.049998,13.78 C117.049998,12.46 117.439998,11.41 118.279998,10.6 C118.999998,9.88 119.809998,9.55 120.709998,9.55 C121.429998,9.55 122.149998,9.64 122.929998,9.88 L122.929998,6.46 C122.389998,6.19 121.729998,6.07 120.979998,6.07 C120.019998,6.07 119.209998,6.34 118.519998,6.91 C117.949998,7.33 117.469998,7.93 117.049998,8.71 L117.049998,6.49 L113.659998,6.49 L113.659998,22 L117.049998,22 Z M127.077497,4.69 C127.737498,4.69 128.277497,4.48 128.727498,4.06 C129.177498,3.64 129.417498,3.07 129.417498,2.41 C129.417498,1.75 129.177498,1.21 128.757497,0.79 C128.307497,0.37 127.737498,0.16 127.077497,0.16 C126.417498,0.16 125.877498,0.37 125.427498,0.79 C124.977498,1.21 124.767497,1.75 124.767497,2.41 C124.767497,3.07 124.977498,3.61 125.427498,4.06 C125.877498,4.48 126.417498,4.69 127.077497,4.69 Z M128.787497,22 L128.787497,6.49 L125.367498,6.49 L125.367498,22 L128.787497,22 Z" id="mandhari" fill="#000000" fill-rule="nonzero"></path>
                            </g>
                        </svg>